<svg id="svg" width="1145" height="1575" viewBox="
                        -300 
                        -300 
                        1145 
                        1575"><g transform="translate(0, 0)"><g fill="none" stroke="#000" stroke-opacity="1" stroke-width="1"><path d="M0,523.436C90.833,523.436,90.833,215.893,181.667,215.893"></path><path d="M0,523.436C90.833,523.436,90.833,431.786,181.667,431.786"></path><path d="M0,523.436C90.833,523.436,90.833,515.357,181.667,515.357"></path><path d="M0,523.436C90.833,523.436,90.833,598.929,181.667,598.929"></path><path d="M0,523.436C90.833,523.436,90.833,855.214,181.667,855.214"></path><path d="M181.667,215.893C272.5,215.893,272.5,27.857,363.333,27.857"></path><path d="M181.667,215.893C272.5,215.893,272.5,125.357,363.333,125.357"></path><path d="M181.667,215.893C272.5,215.893,272.5,222.857,363.333,222.857"></path><path d="M181.667,215.893C272.5,215.893,272.5,264.643,363.333,264.643"></path><path d="M181.667,215.893C272.5,215.893,272.5,306.429,363.333,306.429"></path><path d="M181.667,215.893C272.5,215.893,272.5,348.214,363.333,348.214"></path><path d="M181.667,431.786C272.5,431.786,272.5,376.071,363.333,376.071"></path><path d="M181.667,431.786C272.5,431.786,272.5,403.929,363.333,403.929"></path><path d="M181.667,431.786C272.5,431.786,272.5,431.786,363.333,431.786"></path><path d="M181.667,431.786C272.5,431.786,272.5,459.643,363.333,459.643"></path><path d="M181.667,431.786C272.5,431.786,272.5,487.5,363.333,487.5"></path><path d="M181.667,515.357C272.5,515.357,272.5,515.357,363.333,515.357"></path><path d="M181.667,598.929C272.5,598.929,272.5,543.214,363.333,543.214"></path><path d="M181.667,598.929C272.5,598.929,272.5,598.929,363.333,598.929"></path><path d="M181.667,598.929C272.5,598.929,272.5,654.643,363.333,654.643"></path><path d="M181.667,855.214C272.5,855.214,272.5,710.357,363.333,710.357"></path><path d="M181.667,855.214C272.5,855.214,272.5,807.857,363.333,807.857"></path><path d="M181.667,855.214C272.5,855.214,272.5,877.5,363.333,877.5"></path><path d="M181.667,855.214C272.5,855.214,272.5,919.286,363.333,919.286"></path><path d="M181.667,855.214C272.5,855.214,272.5,961.071,363.333,961.071"></path><path d="M363.333,27.857C454.167,27.857,454.167,13.929,545,13.929"></path><path d="M363.333,27.857C454.167,27.857,454.167,41.786,545,41.786"></path><path d="M363.333,125.357C454.167,125.357,454.167,69.643,545,69.643"></path><path d="M363.333,125.357C454.167,125.357,454.167,97.5,545,97.5"></path><path d="M363.333,125.357C454.167,125.357,454.167,125.357,545,125.357"></path><path d="M363.333,125.357C454.167,125.357,454.167,153.214,545,153.214"></path><path d="M363.333,125.357C454.167,125.357,454.167,181.071,545,181.071"></path><path d="M363.333,222.857C454.167,222.857,454.167,208.929,545,208.929"></path><path d="M363.333,222.857C454.167,222.857,454.167,236.786,545,236.786"></path><path d="M363.333,264.643C454.167,264.643,454.167,264.643,545,264.643"></path><path d="M363.333,306.429C454.167,306.429,454.167,292.5,545,292.5"></path><path d="M363.333,306.429C454.167,306.429,454.167,320.357,545,320.357"></path><path d="M363.333,348.214C454.167,348.214,454.167,348.214,545,348.214"></path><path d="M363.333,376.071C454.167,376.071,454.167,376.071,545,376.071"></path><path d="M363.333,403.929C454.167,403.929,454.167,403.929,545,403.929"></path><path d="M363.333,431.786C454.167,431.786,454.167,431.786,545,431.786"></path><path d="M363.333,459.643C454.167,459.643,454.167,459.643,545,459.643"></path><path d="M363.333,487.5C454.167,487.5,454.167,487.5,545,487.5"></path><path d="M363.333,515.357C454.167,515.357,454.167,515.357,545,515.357"></path><path d="M363.333,543.214C454.167,543.214,454.167,543.214,545,543.214"></path><path d="M363.333,598.929C454.167,598.929,454.167,571.071,545,571.071"></path><path d="M363.333,598.929C454.167,598.929,454.167,598.929,545,598.929"></path><path d="M363.333,598.929C454.167,598.929,454.167,626.786,545,626.786"></path><path d="M363.333,654.643C454.167,654.643,454.167,654.643,545,654.643"></path><path d="M363.333,710.357C454.167,710.357,454.167,682.5,545,682.5"></path><path d="M363.333,710.357C454.167,710.357,454.167,710.357,545,710.357"></path><path d="M363.333,710.357C454.167,710.357,454.167,738.214,545,738.214"></path><path d="M363.333,807.857C454.167,807.857,454.167,766.071,545,766.071"></path><path d="M363.333,807.857C454.167,807.857,454.167,793.929,545,793.929"></path><path d="M363.333,807.857C454.167,807.857,454.167,821.786,545,821.786"></path><path d="M363.333,807.857C454.167,807.857,454.167,849.643,545,849.643"></path><path d="M363.333,877.5C454.167,877.5,454.167,877.5,545,877.5"></path><path d="M363.333,919.286C454.167,919.286,454.167,905.357,545,905.357"></path><path d="M363.333,919.286C454.167,919.286,454.167,933.214,545,933.214"></path><path d="M363.333,961.071C454.167,961.071,454.167,961.071,545,961.071"></path></g><g><circle cx="0" cy="523.4357142857142" r="2.5"></circle><circle cx="181.66666666666669" cy="215.89285714285714" r="2.5"></circle><circle cx="181.66666666666669" cy="431.7857142857143" r="2.5"></circle><circle cx="181.66666666666669" cy="515.3571428571429" r="2.5"></circle><circle cx="181.66666666666669" cy="598.9285714285714" r="2.5"></circle><circle cx="181.66666666666669" cy="855.2142857142857" r="2.5"></circle><circle cx="363.33333333333337" cy="27.857142857142858" r="2.5"></circle><circle cx="363.33333333333337" cy="125.35714285714285" r="2.5"></circle><circle cx="363.33333333333337" cy="222.85714285714286" r="2.5"></circle><circle cx="363.33333333333337" cy="264.6428571428571" r="2.5"></circle><circle cx="363.33333333333337" cy="306.42857142857144" r="2.5"></circle><circle cx="363.33333333333337" cy="348.2142857142857" r="2.5"></circle><circle cx="363.33333333333337" cy="376.0714285714286" r="2.5"></circle><circle cx="363.33333333333337" cy="403.92857142857144" r="2.5"></circle><circle cx="363.33333333333337" cy="431.7857142857143" r="2.5"></circle><circle cx="363.33333333333337" cy="459.6428571428571" r="2.5"></circle><circle cx="363.33333333333337" cy="487.5" r="2.5"></circle><circle cx="363.33333333333337" cy="515.3571428571429" r="2.5"></circle><circle cx="363.33333333333337" cy="543.2142857142858" r="2.5"></circle><circle cx="363.33333333333337" cy="598.9285714285714" r="2.5"></circle><circle cx="363.33333333333337" cy="654.6428571428571" r="2.5"></circle><circle cx="363.33333333333337" cy="710.3571428571428" r="2.5"></circle><circle cx="363.33333333333337" cy="807.8571428571429" r="2.5"></circle><circle cx="363.33333333333337" cy="877.5" r="2.5"></circle><circle cx="363.33333333333337" cy="919.2857142857142" r="2.5"></circle><circle cx="363.33333333333337" cy="961.0714285714287" r="2.5"></circle><circle cx="545" cy="13.928571428571429" r="2.5"></circle><circle cx="545" cy="41.785714285714285" r="2.5"></circle><circle cx="545" cy="69.64285714285714" r="2.5"></circle><circle cx="545" cy="97.5" r="2.5"></circle><circle cx="545" cy="125.35714285714285" r="2.5"></circle><circle cx="545" cy="153.21428571428572" r="2.5"></circle><circle cx="545" cy="181.07142857142858" r="2.5"></circle><circle cx="545" cy="208.92857142857142" r="2.5"></circle><circle cx="545" cy="236.78571428571428" r="2.5"></circle><circle cx="545" cy="264.6428571428571" r="2.5"></circle><circle cx="545" cy="292.5" r="2.5"></circle><circle cx="545" cy="320.35714285714283" r="2.5"></circle><circle cx="545" cy="348.2142857142857" r="2.5"></circle><circle cx="545" cy="376.0714285714286" r="2.5"></circle><circle cx="545" cy="403.92857142857144" r="2.5"></circle><circle cx="545" cy="431.7857142857143" r="2.5"></circle><circle cx="545" cy="459.6428571428571" r="2.5"></circle><circle cx="545" cy="487.5" r="2.5"></circle><circle cx="545" cy="515.3571428571429" r="2.5"></circle><circle cx="545" cy="543.2142857142858" r="2.5"></circle><circle cx="545" cy="571.0714285714286" r="2.5"></circle><circle cx="545" cy="598.9285714285714" r="2.5"></circle><circle cx="545" cy="626.7857142857143" r="2.5"></circle><circle cx="545" cy="654.6428571428571" r="2.5"></circle><circle cx="545" cy="682.5" r="2.5"></circle><circle cx="545" cy="710.3571428571428" r="2.5"></circle><circle cx="545" cy="738.2142857142857" r="2.5"></circle><circle cx="545" cy="766.0714285714286" r="2.5"></circle><circle cx="545" cy="793.9285714285714" r="2.5"></circle><circle cx="545" cy="821.7857142857143" r="2.5"></circle><circle cx="545" cy="849.6428571428571" r="2.5"></circle><circle cx="545" cy="877.5" r="2.5"></circle><circle cx="545" cy="905.3571428571429" r="2.5"></circle><circle cx="545" cy="933.2142857142858" r="2.5"></circle><circle cx="545" cy="961.0714285714287" r="2.5"></circle></g><g stroke-width="3" stroke-linejoin="round"><text x="10" y="533.4357142857142" dx="0" font-size="15px" text-anchor="start" transform="" dy="0.31em" paint-order="stroke" stroke="white">Employee</text><text x="191.66666666666669" y="225.89285714285714" dx="0" font-size="15px" text-anchor="start" transform="" dy="0.31em" paint-order="stroke" stroke="white">Engineering</text><text x="191.66666666666669" y="441.7857142857143" dx="0" font-size="15px" text-anchor="start" transform="" dy="0.31em" paint-order="stroke" stroke="white">Executive</text><text x="191.66666666666669" y="525.3571428571429" dx="0" font-size="15px" text-anchor="start" transform="" dy="0.31em" paint-order="stroke" stroke="white">Facilities</text><text x="191.66666666666669" y="608.9285714285714" dx="0" font-size="15px" text-anchor="start" transform="" dy="0.31em" paint-order="stroke" stroke="white">Information Technology</text><text x="191.66666666666669" y="865.2142857142857" dx="0" font-size="15px" text-anchor="start" transform="" dy="0.31em" paint-order="stroke" stroke="white">Security</text><text x="373.33333333333337" y="37.85714285714286" dx="0" font-size="15px" text-anchor="start" transform="" dy="0.31em" paint-order="stroke" stroke="white">Engineer</text><text x="373.33333333333337" y="135.35714285714283" dx="0" font-size="15px" text-anchor="start" transform="" dy="0.31em" paint-order="stroke" stroke="white">Drill Technician</text><text x="373.33333333333337" y="232.85714285714286" dx="0" font-size="15px" text-anchor="start" transform="" dy="0.31em" paint-order="stroke" stroke="white">Hydraulic Technician</text><text x="373.33333333333337" y="274.6428571428571" dx="0" font-size="15px" text-anchor="start" transform="" dy="0.31em" paint-order="stroke" stroke="white">Engineering Group Manager</text><text x="373.33333333333337" y="316.42857142857144" dx="0" font-size="15px" text-anchor="start" transform="" dy="0.31em" paint-order="stroke" stroke="white">Geologist</text><text x="373.33333333333337" y="358.2142857142857" dx="0" font-size="15px" text-anchor="start" transform="" dy="0.31em" paint-order="stroke" stroke="white">Drill Site Manager</text><text x="373.33333333333337" y="386.0714285714286" dx="0" font-size="15px" text-anchor="start" transform="" dy="0.31em" paint-order="stroke" stroke="white">SVP/CFO</text><text x="373.33333333333337" y="413.92857142857144" dx="0" font-size="15px" text-anchor="start" transform="" dy="0.31em" paint-order="stroke" stroke="white">SVP/CIO</text><text x="373.33333333333337" y="441.7857142857143" dx="0" font-size="15px" text-anchor="start" transform="" dy="0.31em" paint-order="stroke" stroke="white">President/CEO</text><text x="373.33333333333337" y="469.6428571428571" dx="0" font-size="15px" text-anchor="start" transform="" dy="0.31em" paint-order="stroke" stroke="white">SVP/COO</text><text x="373.33333333333337" y="497.5" dx="0" font-size="15px" text-anchor="start" transform="" dy="0.31em" paint-order="stroke" stroke="white">Environmental Safety Advisor</text><text x="373.33333333333337" y="525.3571428571429" dx="0" font-size="15px" text-anchor="start" transform="" dy="0.31em" paint-order="stroke" stroke="white">Facilities Group Manager</text><text x="373.33333333333337" y="553.2142857142858" dx="0" font-size="15px" text-anchor="start" transform="" dy="0.31em" paint-order="stroke" stroke="white">IT Helpdesk</text><text x="373.33333333333337" y="608.9285714285714" dx="0" font-size="15px" text-anchor="start" transform="" dy="0.31em" paint-order="stroke" stroke="white">IT Technician</text><text x="373.33333333333337" y="664.6428571428571" dx="0" font-size="15px" text-anchor="start" transform="" dy="0.31em" paint-order="stroke" stroke="white">IT Group Manager</text><text x="373.33333333333337" y="720.3571428571428" dx="0" font-size="15px" text-anchor="start" transform="" dy="0.31em" paint-order="stroke" stroke="white">Site Control</text><text x="373.33333333333337" y="817.8571428571429" dx="0" font-size="15px" text-anchor="start" transform="" dy="0.31em" paint-order="stroke" stroke="white">Perimeter Control</text><text x="373.33333333333337" y="887.5" dx="0" font-size="15px" text-anchor="start" transform="" dy="0.31em" paint-order="stroke" stroke="white">Building Control</text><text x="373.33333333333337" y="929.2857142857142" dx="0" font-size="15px" text-anchor="start" transform="" dy="0.31em" paint-order="stroke" stroke="white">Badging Office</text><text x="373.33333333333337" y="971.0714285714287" dx="0" font-size="15px" text-anchor="start" transform="" dy="0.31em" paint-order="stroke" stroke="white">Security Group Manager</text><text x="555" y="13.928571428571429" dx="0" font-size="15px" text-anchor="start" transform="" dy="0.31em" paint-order="stroke" stroke="white">2 Azada Lars 1415,     L7783</text><text x="555" y="41.785714285714285" dx="0" font-size="15px" text-anchor="start" transform="" dy="0.31em" paint-order="stroke" stroke="white">3 Balas Felix 9635,     L3191</text><text x="555" y="69.64285714285714" dx="0" font-size="15px" text-anchor="start" transform="" dy="0.31em" paint-order="stroke" stroke="white">7 Orilla Elsa 2540,     L5947</text><text x="555" y="97.5" dx="0" font-size="15px" text-anchor="start" transform="" dy="0.31em" paint-order="stroke" stroke="white">9 Cazar Gustav 2540,     L5947</text><text x="555" y="125.35714285714285" dx="0" font-size="15px" text-anchor="start" transform="" dy="0.31em" paint-order="stroke" stroke="white">27 Orilla Kare 3492,     L7814</text><text x="555" y="153.21428571428572" dx="0" font-size="15px" text-anchor="start" transform="" dy="0.31em" paint-order="stroke" stroke="white">28 Borrasca Isande 9241,     L3288</text><text x="555" y="181.07142857142858" dx="0" font-size="15px" text-anchor="start" transform="" dy="0.31em" paint-order="stroke" stroke="white">33 Tempestad Brand 9683,     L7291</text><text x="555" y="208.92857142857142" dx="0" font-size="15px" text-anchor="start" transform="" dy="0.31em" paint-order="stroke" stroke="white">11 Calzas Axel 1321,     L4149</text><text x="555" y="236.78571428571428" dx="0" font-size="15px" text-anchor="start" transform="" dy="0.31em" paint-order="stroke" stroke="white">19 Frente Vira 6895,     L3366</text><text x="555" y="264.6428571428571" dx="0" font-size="15px" text-anchor="start" transform="" dy="0.31em" paint-order="stroke" stroke="white">14 Dedos Lidelse 1874,     L4424</text><text x="555" y="292.5" dx="0" font-size="15px" text-anchor="start" transform="" dy="0.31em" paint-order="stroke" stroke="white">18 Frente Birgitta 9617,     L5553</text><text x="555" y="320.35714285714283" dx="0" font-size="15px" text-anchor="start" transform="" dy="0.31em" paint-order="stroke" stroke="white">25 Herrero Kanon 2142,     L9637</text><text x="555" y="348.2142857142857" dx="0" font-size="15px" text-anchor="start" transform="" dy="0.31em" paint-order="stroke" stroke="white">26 Onda Marin 1310,     L8012</text><text x="555" y="376.0714285714286" dx="0" font-size="15px" text-anchor="start" transform="" dy="0.31em" paint-order="stroke" stroke="white">4 Barranco Ingrid 7688,     L4164</text><text x="555" y="403.92857142857144" dx="0" font-size="15px" text-anchor="start" transform="" dy="0.31em" paint-order="stroke" stroke="white">10 Campo-Corrente Ada 8332,     L2070</text><text x="555" y="431.7857142857143" dx="0" font-size="15px" text-anchor="start" transform="" dy="0.31em" paint-order="stroke" stroke="white">31 Sanjorge Jr. Sten 5010,     L2459</text><text x="555" y="459.6428571428571" dx="0" font-size="15px" text-anchor="start" transform="" dy="0.31em" paint-order="stroke" stroke="white">32 Strum Orhan 8156,     L5224</text><text x="555" y="487.5" dx="0" font-size="15px" text-anchor="start" transform="" dy="0.31em" paint-order="stroke" stroke="white">35 Vasco-Pais Willem 2463,     L6886</text><text x="555" y="515.3571428571429" dx="0" font-size="15px" text-anchor="start" transform="" dy="0.31em" paint-order="stroke" stroke="white">29 Ovan Bertrand 3547,     L9362</text><text x="555" y="543.2142857142858" dx="0" font-size="15px" text-anchor="start" transform="" dy="0.31em" paint-order="stroke" stroke="white">1 Calixto Nils 9551,     L5777</text><text x="555" y="571.0714285714286" dx="0" font-size="15px" text-anchor="start" transform="" dy="0.31em" paint-order="stroke" stroke="white">5 Baza Isak 6899,     L6267</text><text x="555" y="598.9285714285714" dx="0" font-size="15px" text-anchor="start" transform="" dy="0.31em" paint-order="stroke" stroke="white">8 Alcazar Lucas 7889,     L6119</text><text x="555" y="626.7857142857143" dx="0" font-size="15px" text-anchor="start" transform="" dy="0.31em" paint-order="stroke" stroke="white">17 Flecha Sven 7384,     L3800</text><text x="555" y="654.6428571428571" dx="0" font-size="15px" text-anchor="start" transform="" dy="0.31em" paint-order="stroke" stroke="white">6 Bergen Linnea 7253,     L1682</text><text x="555" y="682.5" dx="0" font-size="15px" text-anchor="start" transform="" dy="0.31em" paint-order="stroke" stroke="white">12 Cocinaro Hideki 7108,     L6544</text><text x="555" y="710.3571428571428" dx="0" font-size="15px" text-anchor="start" transform="" dy="0.31em" paint-order="stroke" stroke="white">13 Ferro Inga 7819,     L5259</text><text x="555" y="738.2142857142857" dx="0" font-size="15px" text-anchor="start" transform="" dy="0.31em" paint-order="stroke" stroke="white">15 Bodrogi Loreto 3853,     L1485</text><text x="555" y="766.0714285714286" dx="0" font-size="15px" text-anchor="start" transform="" dy="0.31em" paint-order="stroke" stroke="white">16 Vann Isia 7354,     L9254</text><text x="555" y="793.9285714285714" dx="0" font-size="15px" text-anchor="start" transform="" dy="0.31em" paint-order="stroke" stroke="white">21 Osvaldo Hennie 9405,     L3259</text><text x="555" y="821.7857142857143" dx="0" font-size="15px" text-anchor="start" transform="" dy="0.31em" paint-order="stroke" stroke="white">24 Mies Minke 4434,     L2169</text><text x="555" y="849.6428571428571" dx="0" font-size="15px" text-anchor="start" transform="" dy="0.31em" paint-order="stroke" stroke="white">34 Vann Edvard 4795,     L8566</text><text x="555" y="877.5" dx="0" font-size="15px" text-anchor="start" transform="" dy="0.31em" paint-order="stroke" stroke="white">20 Fusil Stenig 6816,     L8148</text><text x="555" y="905.3571428571429" dx="0" font-size="15px" text-anchor="start" transform="" dy="0.31em" paint-order="stroke" stroke="white">22 Nubarron Adra 1286,     L3572</text><text x="555" y="933.2142857142858" dx="0" font-size="15px" text-anchor="start" transform="" dy="0.31em" paint-order="stroke" stroke="white">23 Lagos Varja 3484,     L2490</text><text x="555" y="961.0714285714287" dx="0" font-size="15px" text-anchor="start" transform="" dy="0.31em" paint-order="stroke" stroke="white">30 Resumir Felix 6901,     L9363</text></g></g></svg>